<?xml version="1.0" encoding="utf-8"?>
<!-- Generator: Adobe Illustrator 17.0.0, SVG Export Plug-In . SVG Version: 6.00 Build 0)  -->
<!DOCTYPE svg PUBLIC "-//W3C//DTD SVG 1.1//EN" "http://www.w3.org/Graphics/SVG/1.1/DTD/svg11.dtd">
<svg version="1.1" id="Layer_1" xmlns="http://www.w3.org/2000/svg" xmlns:xlink="http://www.w3.org/1999/xlink" x="0px" y="0px"
	 width="1800px" height="900px" viewBox="0 0 1800 900" enable-background="new 0 0 1800 900" xml:space="preserve">
<g>
	<text transform="matrix(1 0 0 1 1420.115 316.0289)"><tspan x="0" y="0" fill="#005C9C" font-family="'TextbookNew-Bold'" font-size="103.9228">&lt;</tspan><tspan x="73.369" y="0" fill="#005C9C" font-family="'TextbookNew-Bold'" font-size="103.9228" letter-spacing="-12"> </tspan><tspan x="85.11" y="-14.527" fill="#005C9C" font-family="'TextbookNew-Bold'" font-size="103.9228" letter-spacing="-12">/</tspan><tspan x="141.851" y="0" fill="#005C9C" font-family="'TextbookNew-Bold'" font-size="103.9228">&gt;</tspan></text>
	<path fill="#0095C7" d="M1728,587.473c0,8.023-6.504,14.527-14.527,14.527H86.527C78.504,602,72,595.496,72,587.473V95.527
		C72,87.504,78.504,81,86.527,81h1626.946c8.023,0,14.527,6.504,14.527,14.527V587.473z M1724,95.376
		c0-5.731-4.646-10.376-10.376-10.376H86.376C80.646,85,76,89.646,76,95.376v492.247C76,593.354,80.646,598,86.376,598h1627.247
		c5.731,0,10.376-4.646,10.376-10.376V95.376z"/>
	<rect x="176" y="27" fill="#FFFFFF" width="546" height="100"/>
	<g>
		<text transform="matrix(1 0 0 1 209.9801 104.3319)" fill="#E7792C" font-family="'TextbookNew-Regular'" font-size="87.9071">HTTP Server</text>
	</g>
	<path fill="#0095C7" d="M717.395,299.877c-0.6,0-1.194-0.257-1.605-0.756c-0.728-0.886-0.6-2.286,0.284-3.015L735.524,280H422.975
		c-1.147,0-2.075-0.854-2.075-2s0.928-2,2.075-2h311.673l-18.574-15.272c-0.884-0.729-1.011-2.027-0.284-2.912
		c0.73-0.885,2.035-1.007,2.922-0.278l22.765,18.744c0.239,0.129,0.45,0.304,0.62,0.512l0.093,0.077
		c0.478,0.394,0.756,0.982,0.756,1.602c0,0.62-0.278,1.208-0.756,1.602l-23.479,19.329
		C718.326,299.722,717.859,299.877,717.395,299.877z"/>
	<rect x="288" y="565" fill="#FFFFFF" width="25" height="62"/>
	<path fill="#0095C7" d="M300.585,691.42c-0.62,0-1.208-0.278-1.603-0.756l-19.33-23.479c-0.728-0.885-0.6-2.193,0.284-2.921
		c0.888-0.73,1.964-0.601,2.694,0.283L298,683.495V495.316l-15.371,18.948c-0.73,0.885-1.92,1.012-2.808,0.283
		c-0.884-0.729-0.954-2.037-0.227-2.921l19.359-23.479c0.79-0.957,2.43-0.957,3.22,0l19.335,23.479
		c0.728,0.886,0.603,2.193-0.28,2.921c-0.886,0.73-2.495,0.602-3.225-0.283L302,495.189v188.434l16.006-19.076
		c0.73-0.884,2.189-1.012,3.074-0.283c0.884,0.729,1.087,2.036,0.36,2.921l-19.29,23.479
		C301.755,691.143,301.205,691.42,300.585,691.42z"/>
	<path fill="#0095C7" d="M1325.457,299.877c-0.6,0-1.194-0.257-1.605-0.756c-0.728-0.886-0.6-2.286,0.284-3.015l19.45-16.106
		h-312.549c-1.147,0-2.075-0.854-2.075-2s0.928-2,2.075-2h311.673l-18.574-15.272c-0.884-0.729-1.011-2.027-0.284-2.912
		c0.729-0.885,2.037-1.007,2.922-0.278l22.766,18.744c0.239,0.129,0.45,0.304,0.62,0.512l0.093,0.077
		c0.478,0.394,0.756,0.982,0.756,1.602c0,0.62-0.278,1.208-0.756,1.602l-23.479,19.329
		C1326.387,299.722,1325.921,299.877,1325.457,299.877z"/>
	<path fill="#005C9C" d="M371.372,286.267v-16.275l-2.299-0.75l-17.422-5.688l-4.647-11.226l8.938-18.906L344.43,221.91
		l-2.159,1.096l-16.337,8.3l-11.225-4.652l-7.054-19.693h-16.272l-0.751,2.305l-5.688,17.421l-11.22,4.647l-18.917-8.932
		L243.3,233.907l1.095,2.154l8.295,16.348l-4.641,11.215l-19.699,7.054v16.28l2.299,0.75l17.427,5.688l4.647,11.221l-8.933,18.911
		l11.501,11.512l2.159-1.099l16.343-8.298l11.22,4.649l7.054,19.691h16.277l0.751-2.3l5.688-17.421l11.221-4.649l18.911,8.94
		l11.512-11.512l-1.095-2.159l-8.301-16.336l4.652-11.226L371.372,286.267z M299.861,301.265c-12.586,0-22.786-10.203-22.786-22.792
		c0-12.588,10.2-22.789,22.786-22.789c12.591,0,22.791,10.2,22.791,22.789C322.653,291.062,312.453,301.265,299.861,301.265z"/>
	<path fill="#005C9C" d="M898.81,225.663l-2.029-2.029H841.58v115.34h82.51v-88.031l-2.029-2.029L898.81,225.663z M917.16,332.044
		H848.51V230.565h39.204c10.297,0,5.333,24.409,5.333,24.409s23.808-5.79,24.113,5.126V332.044z M960.628,240.467l-22.497-22.497
		h-35.039l6.93,6.93h19.786c0.018,0,0.036,0,0.054,0c-0.009,0.081-0.009,0.153-0.009,0.233c3.088,0,4.623,2.505,5.288,5.799
		c1.212,6.356-0.638,15.45-0.638,15.45s0.036-0.009,0.099-0.018c-0.036,0.162-0.054,0.251-0.054,0.251s18.583-4.515,20.98,2.972
		c0.018,0.081,0.045,0.171,0.063,0.251c0.018,0.081,0.036,0.171,0.054,0.251c0.045,0.26,0.072,0.521,0.081,0.808v63.325h-24.355
		v6.93h31.286v-78.659L960.628,240.467z"/>
	<g>
		<g>
			<path fill="#005C9C" d="M299.864,829.357c-17.55,0-34.187-2.373-46.835-6.681c-6.693-2.275-11.626-4.868-15.231-7.593v25.044
				c0,6.572,8.786,12.429,22.583,16.319c10.725,3.011,24.489,4.824,39.484,4.824c34.275,0,62.06-9.473,62.06-21.143v-25.044
				c-3.61,2.725-8.538,5.319-15.236,7.593C334.051,826.984,317.413,829.357,299.864,829.357z M361.924,800.434v-25.736
				c-3.61,2.714-8.538,5.308-15.236,7.593c-12.637,4.308-29.275,6.681-46.824,6.681c-17.55,0-34.187-2.374-46.835-6.681
				c-6.693-2.285-11.638-4.879-15.231-7.593v25.736c2.066,11.044,29.132,19.791,62.066,19.791S359.864,811.478,361.924,800.434z
				 M237.798,759.698c1.517,11.209,28.764,20.132,62.066,20.132c33.296,0,60.549-8.923,62.06-20.132v-21.923
				c0-11.67-27.785-21.132-62.06-21.132c-34.286,0-62.066,9.462-62.066,21.132V759.698z"/>
		</g>
	</g>
</g>
<g>
	<text transform="matrix(1 0 0 1 2179.8948 451.8015)"><tspan x="0" y="0" fill="#E7AF88" font-family="'TextbookNew-Regular'" font-size="55.3837">index</tspan><tspan x="125.829" y="0" fill="#E7792C" font-family="'TextbookNew-Regular'" font-size="55.3837">.page.js</tspan></text>
</g>
<g>
	<text transform="matrix(1 0 0 1 2740.2158 451.8021)"><tspan x="0" y="0" fill="#E7AF88" font-family="'TextbookNew-Regular'" font-size="55.3837">index</tspan><tspan x="125.829" y="0" fill="#E7792C" font-family="'TextbookNew-Regular'" font-size="54.6534">.bt.js</tspan></text>
</g>
<g>
	<text transform="matrix(1 0 0 1 3326.8594 451.8015)" fill="#E7792C" font-family="'TextbookNew-Regular'" font-size="55.3837">HTML</text>
</g>
<text transform="matrix(1 0 0 1 3301.3748 346.5844)"><tspan x="0" y="0" fill="#005C9C" font-family="'TextbookNew-Bold'" font-size="91.2277">&lt;</tspan><tspan x="64.406" y="0" fill="#005C9C" font-family="'TextbookNew-Bold'" font-size="91.2277" letter-spacing="-10"> </tspan><tspan x="74.714" y="-12.752" fill="#005C9C" font-family="'TextbookNew-Bold'" font-size="91.2277" letter-spacing="-10">/</tspan><tspan x="124.522" y="0" fill="#005C9C" font-family="'TextbookNew-Bold'" font-size="91.2277">&gt;</tspan></text>
<path fill="#0095C7" d="M2719.108,332.405c-0.527,0-1.048-0.226-1.409-0.664c-0.639-0.777-0.527-1.985,0.249-2.625L2735.022,315
	h-274.368c-1.007,0-1.822-0.494-1.822-1.5s0.815-1.5,1.822-1.5h273.6l-16.305-13.684c-0.776-0.64-0.888-1.918-0.249-2.695
	c0.64-0.777,1.786-0.953,2.565-0.314l19.984,16.419c0.21,0.113,0.395,0.25,0.544,0.432l0.082,0.059
	c0.42,0.346,0.664,0.858,0.664,1.402c0,0.544-0.244,1.058-0.664,1.404l-20.611,16.967
	C2719.925,332.27,2719.516,332.405,2719.108,332.405z"/>
<path fill="#0095C7" d="M2353.215,676.118c-0.544,0-1.06-0.244-1.407-0.664l-16.969-20.611c-0.639-0.777-0.527-1.925,0.249-2.565
	c0.779-0.64,1.751-0.527,2.392,0.248l13.52,16.634V503.97l-13.52,16.634c-0.64,0.777-1.699,0.889-2.479,0.248
	c-0.776-0.64-0.844-1.788-0.206-2.565l16.99-20.611c0.694-0.84,2.132-0.84,2.825,0l16.972,20.611
	c0.639,0.777,0.53,1.925-0.246,2.565c-0.777,0.641-1.919,0.528-2.56-0.248L2355,503.858v165.415l13.78-16.746
	c0.64-0.776,1.786-0.889,2.563-0.248c0.776,0.64,0.886,1.787,0.248,2.565l-16.968,20.611
	C2354.276,675.874,2353.76,676.118,2353.215,676.118z"/>
<path fill="#0095C7" d="M3232.85,332.405c-0.527,0-1.048-0.226-1.409-0.664c-0.639-0.777-0.527-1.985,0.249-2.625L3248.764,315
	h-274.368c-1.007,0-1.822-0.494-1.822-1.5s0.815-1.5,1.822-1.5h273.599l-16.305-13.684c-0.776-0.64-0.888-1.918-0.249-2.695
	c0.64-0.777,1.788-0.953,2.565-0.314l19.984,16.419c0.21,0.113,0.395,0.25,0.544,0.432l0.082,0.059
	c0.42,0.346,0.664,0.858,0.664,1.402c0,0.544-0.244,1.058-0.664,1.404l-20.611,16.967
	C3233.667,332.27,3233.258,332.405,3232.85,332.405z"/>
<path fill="#005C9C" d="M2858.322,267.257l-1.781-1.781h-48.458v101.25h72.431v-77.278l-1.781-1.781L2858.322,267.257z
	 M2874.43,360.643h-60.263V271.56h34.415c9.04,0,4.681,21.428,4.681,21.428s20.899-5.083,21.167,4.5V360.643z M2912.588,280.253
	l-19.749-19.749h-30.758l6.084,6.084h17.369c0.016,0,0.031,0,0.047,0c-0.008,0.071-0.008,0.134-0.008,0.205
	c2.711,0,4.059,2.199,4.642,5.091c1.064,5.579-0.56,13.562-0.56,13.562s0.031-0.008,0.087-0.016
	c-0.031,0.142-0.047,0.221-0.047,0.221s16.313-3.964,18.417,2.609c0.016,0.071,0.04,0.15,0.055,0.221
	c0.016,0.071,0.032,0.15,0.047,0.221c0.04,0.228,0.063,0.457,0.071,0.709V345h-21.38v6.084h27.464v-69.05L2912.588,280.253z"/>
<path fill="#005C9C" d="M2331.482,267.257l-1.781-1.781h-48.458v101.25h72.431v-77.278l-1.781-1.781L2331.482,267.257z
	 M2347.59,360.643h-60.263V271.56h34.415c9.039,0,4.681,21.428,4.681,21.428s20.899-5.083,21.167,4.5V360.643z M2385.748,280.253
	l-19.749-19.749h-30.758l6.084,6.084h17.369c0.016,0,0.031,0,0.047,0c-0.008,0.071-0.008,0.134-0.008,0.205
	c2.711,0,4.059,2.199,4.642,5.091c1.064,5.579-0.56,13.562-0.56,13.562s0.031-0.008,0.087-0.016
	c-0.031,0.142-0.047,0.221-0.047,0.221s16.313-3.964,18.417,2.609c0.016,0.071,0.04,0.15,0.055,0.221
	c0.016,0.071,0.032,0.15,0.047,0.221c0.04,0.228,0.063,0.457,0.071,0.709V345h-21.38v6.084h27.464v-69.05L2385.748,280.253z"/>
<g>
	<g>
		<path fill="#005C9C" d="M2352.583,797.205c-15.406,0-30.011-2.083-41.114-5.865c-5.875-1.997-10.206-4.273-13.371-6.666v21.985
			c0,5.769,7.712,10.91,19.824,14.325c9.415,2.643,21.497,4.235,34.66,4.235c30.088,0,54.479-8.315,54.479-18.56v-21.985
			c-3.169,2.393-7.495,4.669-13.375,6.666C2382.593,795.121,2367.988,797.205,2352.583,797.205z M2407.062,771.815v-22.592
			c-3.169,2.383-7.495,4.66-13.375,6.666c-11.094,3.781-25.698,5.865-41.104,5.865c-15.406,0-30.011-2.084-41.114-5.865
			c-5.875-2.006-10.216-4.283-13.371-6.666v22.592c1.814,9.695,25.573,17.374,54.484,17.374S2405.253,781.51,2407.062,771.815z
			 M2298.098,736.055c1.332,9.84,25.25,17.672,54.484,17.672c29.229,0,53.153-7.833,54.479-17.672V716.81
			c0-10.245-24.391-18.551-54.479-18.551c-30.098,0-54.484,8.306-54.484,18.551V736.055z"/>
	</g>
</g>
<g>
	<path fill-rule="evenodd" clip-rule="evenodd" fill="#46483E" d="M2325.213,123.345c0-0.987-0.52-1.895-1.372-2.384l-22.715-13.073
		c-0.384-0.226-0.815-0.343-1.251-0.361c-0.039,0-0.203,0-0.235,0c-0.434,0.018-0.865,0.135-1.254,0.361l-22.716,13.073
		c-0.847,0.489-1.373,1.397-1.373,2.384l0.05,35.201c0,0.489,0.254,0.945,0.685,1.185c0.422,0.253,0.943,0.253,1.363,0l13.5-7.73
		c0.854-0.507,1.373-1.402,1.373-2.38v-16.446c0-0.98,0.52-1.888,1.37-2.375l5.748-3.311c0.429-0.247,0.897-0.368,1.375-0.368
		c0.468,0,0.948,0.121,1.365,0.368l5.746,3.311c0.851,0.487,1.372,1.395,1.372,2.375v16.446c0,0.978,0.527,1.879,1.375,2.38
		l13.496,7.73c0.423,0.253,0.952,0.253,1.372,0c0.418-0.24,0.681-0.696,0.681-1.185L2325.213,123.345z"/>
	<path fill-rule="evenodd" clip-rule="evenodd" fill="#46483E" d="M2446.507,74.955c-0.425-0.236-0.944-0.231-1.364,0.015
		c-0.419,0.246-0.677,0.697-0.677,1.183v34.86c0,0.342-0.183,0.66-0.479,0.832c-0.297,0.172-0.664,0.172-0.961,0l-5.689-3.278
		c-0.849-0.489-1.893-0.488-2.742,0.001l-22.724,13.114c-0.85,0.49-1.373,1.396-1.373,2.376v26.234c0,0.98,0.523,1.886,1.372,2.377
		l22.723,13.124c0.849,0.49,1.896,0.49,2.745,0l22.727-13.124c0.849-0.491,1.372-1.397,1.372-2.377V84.898
		c0-0.995-0.538-1.912-1.407-2.397L2446.507,74.955z M2444.399,141.673c0,0.245-0.131,0.471-0.344,0.593l-7.802,4.497
		c-0.212,0.122-0.473,0.122-0.685,0l-7.802-4.497c-0.212-0.122-0.343-0.349-0.343-0.593v-9.009c0-0.245,0.131-0.471,0.343-0.594
		l7.802-4.506c0.213-0.123,0.474-0.123,0.687,0l7.802,4.506c0.212,0.123,0.343,0.35,0.343,0.594V141.673z"/>
	<path fill-rule="evenodd" clip-rule="evenodd" fill="#46483E" d="M2527.806,132.428c0.845-0.491,1.365-1.395,1.365-2.372v-6.357
		c0-0.978-0.52-1.882-1.366-2.373l-22.578-13.109c-0.85-0.494-1.898-0.495-2.75-0.004l-22.716,13.114
		c-0.849,0.49-1.372,1.396-1.372,2.376v26.227c0,0.986,0.53,1.896,1.386,2.384l22.575,12.864c0.833,0.475,1.853,0.48,2.691,0.015
		l13.655-7.59c0.433-0.241,0.703-0.696,0.705-1.19c0.004-0.495-0.26-0.953-0.688-1.199l-22.86-13.121
		c-0.427-0.245-0.689-0.699-0.689-1.19v-8.219c0-0.49,0.261-0.944,0.687-1.188l7.115-4.102c0.423-0.245,0.946-0.245,1.37,0
		l7.118,4.102c0.425,0.245,0.687,0.698,0.687,1.188v6.467c0,0.491,0.262,0.945,0.688,1.189c0.425,0.245,0.949,0.244,1.374-0.003
		L2527.806,132.428z"/>
	<path fill-rule="evenodd" clip-rule="evenodd" fill="#8CC84B" d="M2366.534,108.075c0.848-0.49,1.895-0.49,2.743,0l22.721,13.112
		c0.85,0.49,1.373,1.396,1.373,2.377v26.244c0,0.98-0.523,1.886-1.372,2.377l-22.721,13.122c-0.849,0.49-1.896,0.49-2.745,0
		l-22.716-13.122c-0.849-0.491-1.372-1.397-1.372-2.377v-26.245c0-0.98,0.523-1.886,1.373-2.376L2366.534,108.075z"/>
	<path fill="#8CC84B" d="M2571.923,165.681c-0.783,0-1.562-0.205-2.247-0.601l-7.154-4.232c-1.068-0.598-0.546-0.809-0.194-0.932
		c1.425-0.495,1.713-0.608,3.234-1.471c0.158-0.089,0.368-0.055,0.532,0.041l5.496,3.263c0.199,0.11,0.48,0.11,0.664,0
		l21.426-12.366c0.199-0.114,0.327-0.343,0.327-0.58v-24.726c0-0.242-0.128-0.468-0.333-0.591l-21.417-12.356
		c-0.198-0.116-0.461-0.116-0.66,0l-21.411,12.359c-0.208,0.119-0.34,0.352-0.34,0.587v24.726c0,0.237,0.132,0.461,0.338,0.573
		l5.869,3.391c3.185,1.592,5.135-0.283,5.135-2.167v-24.413c0-0.345,0.278-0.617,0.623-0.617h2.717c0.34,0,0.621,0.272,0.621,0.617
		v24.413c0,4.25-2.314,6.688-6.344,6.688c-1.238,0-2.213,0-4.935-1.341l-5.618-3.234c-1.388-0.802-2.247-2.302-2.247-3.909v-24.726
		c0-1.606,0.859-3.106,2.247-3.905l21.426-12.381c1.356-0.767,3.158-0.767,4.503,0l21.424,12.381c1.388,0.802,2.25,2.299,2.25,3.905
		v24.726c0,1.606-0.863,3.101-2.25,3.909l-21.424,12.37C2573.494,165.477,2572.717,165.681,2571.923,165.681z"/>
	<path fill="#8CC84B" d="M2578.541,148.646c-9.375,0-11.34-4.304-11.34-7.913c0-0.343,0.276-0.617,0.619-0.617h2.77
		c0.309,0,0.567,0.222,0.615,0.525c0.418,2.82,1.665,4.243,7.335,4.243c4.514,0,6.435-1.021,6.435-3.416
		c0-1.381-0.544-2.405-7.559-3.092c-5.862-0.58-9.488-1.875-9.488-6.565c0-4.323,3.644-6.901,9.753-6.901
		c6.864,0,10.26,2.382,10.69,7.494c0.016,0.176-0.046,0.345-0.164,0.477c-0.117,0.123-0.281,0.197-0.454,0.197h-2.781
		c-0.288,0-0.543-0.205-0.601-0.484c-0.667-2.967-2.29-3.916-6.691-3.916c-4.928,0-5.501,1.717-5.501,3.003
		c0,1.559,0.676,2.012,7.33,2.893c6.584,0.87,9.712,2.103,9.712,6.73C2589.223,145.973,2585.33,148.646,2578.541,148.646z"/>
	<g>
		<path fill="#8CC84B" d="M2608.085,107.847v0.635h-1.802v4.699h-0.728v-4.699h-1.797v-0.635H2608.085z"/>
		<path fill="#8CC84B" d="M2608.729,107.847h1.035l1.532,4.508l1.525-4.508h1.029v5.334h-0.69v-3.147c0-0.11,0.002-0.29,0.005-0.539
			c0.007-0.256,0.011-0.526,0.011-0.813l-1.525,4.499h-0.715l-1.537-4.499v0.16c0,0.132,0,0.331,0.009,0.601
			c0.005,0.265,0.012,0.463,0.012,0.591v3.147h-0.69V107.847z"/>
	</g>
	<path fill-rule="evenodd" clip-rule="evenodd" fill="#8CC84B" d="M2503.518,131.2c0.163-0.094,0.364-0.094,0.527,0l4.36,2.516
		c0.163,0.094,0.263,0.268,0.263,0.456v5.035c0,0.189-0.1,0.362-0.263,0.456l-4.36,2.516c-0.163,0.094-0.364,0.094-0.527,0
		l-4.357-2.516c-0.163-0.094-0.263-0.268-0.263-0.456v-5.035c0-0.189,0.101-0.362,0.263-0.456L2503.518,131.2z"/>
</g>
<g>
	<path fill="#0095C7" d="M2342,594h-191.268c-5.031,0-8.732-4.226-8.732-9.257V152.981c0-5.031,3.701-8.981,8.732-8.981H2244v-3
		h-93.268c-7.043,0-12.732,4.938-12.732,11.981v431.762c0,7.043,5.689,13.257,12.732,13.257H2342V594z"/>
	<path fill="#0095C7" d="M3555.324,141H2634v3h921.324c5.031,0,8.676,3.951,8.676,8.981v431.762c0,5.031-3.645,9.257-8.676,9.257
		H2364v4h1191.324c7.043,0,12.676-6.214,12.676-13.257V152.981C3568,145.938,3562.367,141,3555.324,141z"/>
</g>
<g>
	<text transform="matrix(1 0 0 1 3767.8633 415.9116)" fill="#E7792C" font-family="'TextbookNew-Regular'" font-size="54.8612">контроллер</text>
</g>
<g>
	<text transform="matrix(1 0 0 1 4231.5596 419.812)"><tspan x="0" y="0" fill="#E7792C" font-family="'TextbookNew-Bold'" font-size="54.1378">императивные  </tspan><tspan x="89.678" y="50.529" fill="#E7792C" font-family="'TextbookNew-Regular'" font-size="54.1378">шаблоны</tspan></text>
</g>
<g>
	<text transform="matrix(1 0 0 1 4905.5117 415.911)" fill="#E7792C" font-family="'TextbookNew-Regular'" font-size="54.8612">HTML</text>
</g>
<text transform="matrix(1 0 0 1 4880.2676 311.6864)"><tspan x="0" y="0" fill="#005C9C" font-family="'TextbookNew-Bold'" font-size="90.367">&lt;</tspan><tspan x="63.799" y="0" fill="#005C9C" font-family="'TextbookNew-Bold'" font-size="90.367" letter-spacing="-10"> </tspan><tspan x="74.009" y="-12.632" fill="#005C9C" font-family="'TextbookNew-Bold'" font-size="90.367" letter-spacing="-10">/</tspan><tspan x="123.348" y="0" fill="#005C9C" font-family="'TextbookNew-Bold'" font-size="90.367">&gt;</tspan></text>
<g>
	<text transform="matrix(1 0 0 1 3827.9832 127.6023)" fill="#E7792C" font-family="'TextbookNew-Regular'" font-size="76.4404">HTTP Server</text>
</g>
<path fill="#0095C7" d="M4269.209,297.64c-0.522,0-1.038-0.224-1.396-0.657c-0.633-0.77-0.521-2.166,0.247-2.8L4284.973,280h-271.78
	c-0.998,0-1.805-1.003-1.805-2s0.807-2,1.805-2h271.018l-16.151-12.841c-0.768-0.634-0.879-1.543-0.247-2.313
	c0.634-0.769,1.77-0.766,2.541-0.132l19.796,16.354c0.208,0.112,0.392,0.292,0.54,0.473l0.081,0.08
	c0.416,0.343,0.657,0.861,0.657,1.4c0,0.539-0.241,1.054-0.657,1.397l-20.417,16.81
	C4270.018,297.504,4269.613,297.64,4269.209,297.64z"/>
<path fill="#0095C7" d="M3906.768,638.111c-0.539,0-1.05-0.241-1.394-0.657l-16.809-20.416c-0.633-0.769-0.521-1.907,0.247-2.54
	c0.772-0.634,1.948-0.523,2.582,0.246L3905,631.219V467.586l-13.605,16.477c-0.635,0.769-1.79,0.88-2.562,0.246
	c-0.768-0.634-0.89-1.771-0.257-2.54l16.804-20.416c0.687-0.832,2.098-0.832,2.785,0l16.806,20.416
	c0.633,0.77,0.521,1.907-0.247,2.54c-0.77,0.634-2.171,0.523-2.805-0.246L3908,467.475V631.33l13.918-16.588
	c0.635-0.768,1.903-0.88,2.673-0.246c0.768,0.634,0.945,1.77,0.312,2.54l-16.774,20.416
	C3907.786,637.869,3907.308,638.111,3906.768,638.111z"/>
<path fill="#0095C7" d="M4797.955,297.64c-0.521,0-1.038-0.224-1.396-0.657c-0.633-0.77-0.522-2.166,0.247-2.8L4813.718,280
	h-271.779c-0.998,0-1.805-1.003-1.805-2s0.807-2,1.805-2h271.018l-16.151-12.841c-0.769-0.634-0.879-1.543-0.247-2.313
	c0.634-0.769,1.771-0.766,2.541-0.132l19.796,16.354c0.208,0.112,0.391,0.292,0.539,0.473l0.081,0.08
	c0.416,0.343,0.658,0.861,0.658,1.4c0,0.539-0.242,1.054-0.658,1.397l-20.416,16.81
	C4798.764,297.504,4798.358,297.64,4797.955,297.64z"/>
<path fill="#005C9C" d="M3968.321,285.806v-14.152l-1.999-0.652l-15.149-4.946l-4.041-9.762l7.772-16.44l-10.01-10.01l-1.877,0.953
	l-14.206,7.218l-9.761-4.045l-6.134-17.124h-14.149l-0.653,2.004l-4.947,15.149l-9.756,4.041l-16.449-7.767l-10.005,10.005
	l0.953,1.873l7.213,14.215l-4.036,9.752l-17.13,6.134v14.156l1.999,0.652l15.154,4.946l4.041,9.757l-7.767,16.444l10.001,10.011
	l1.877-0.955l14.211-7.215l9.756,4.043l6.134,17.123h14.154l0.653-2l4.946-15.149l9.757-4.043l16.445,7.774l10.01-10.01
	l-0.952-1.878l-7.218-14.206l4.045-9.762L3968.321,285.806z M3906.139,298.847c-10.944,0-19.814-8.872-19.814-19.819
	c0-10.946,8.87-19.816,19.814-19.816c10.949,0,19.819,8.87,19.819,19.816C3925.958,289.975,3917.088,298.847,3906.139,298.847z"/>
<path fill="#005C9C" d="M4426.96,233.107l-1.764-1.764h-48v100.295h71.748V255.09l-1.765-1.764L4426.96,233.107z M4442.916,325.612
	h-59.694V237.37h34.09c8.954,0,4.637,21.225,4.637,21.225s20.702-5.035,20.967,4.457V325.612z M4480.714,245.98l-19.562-19.562
	h-30.468l6.026,6.026h17.205c0.016,0,0.031,0,0.047,0c-0.008,0.07-0.008,0.133-0.008,0.203c2.686,0,4.021,2.178,4.598,5.043
	c1.054,5.527-0.554,13.434-0.554,13.434s0.031-0.008,0.086-0.016c-0.031,0.141-0.047,0.219-0.047,0.219s16.159-3.926,18.243,2.584
	c0.016,0.07,0.04,0.148,0.055,0.219s0.031,0.148,0.046,0.219c0.04,0.226,0.062,0.453,0.07,0.703v55.065h-21.178v6.026h27.205
	v-68.399L4480.714,245.98z"/>
<g>
	<g>
		<path fill="#005C9C" d="M3906.141,758.055c-15.26,0-29.728-2.064-40.726-5.81c-5.82-1.978-10.11-4.233-13.244-6.603v21.777
			c0,5.714,7.639,10.807,19.637,14.19c9.326,2.618,21.295,4.195,34.333,4.195c29.804,0,53.965-8.237,53.965-18.385v-21.777
			c-3.139,2.37-7.424,4.625-13.249,6.603C3935.868,755.991,3921.401,758.055,3906.141,758.055z M3960.106,732.904v-22.379
			c-3.139,2.36-7.424,4.616-13.249,6.603c-10.989,3.746-25.456,5.81-40.716,5.81c-15.26,0-29.728-2.064-40.726-5.81
			c-5.82-1.987-10.12-4.243-13.244-6.603v22.379c1.796,9.603,25.332,17.21,53.97,17.21S3958.315,742.508,3960.106,732.904z
			 M3852.171,697.482c1.319,9.747,25.012,17.506,53.97,17.506c28.953,0,52.651-7.759,53.965-17.506v-19.064
			c0-10.148-24.161-18.376-53.965-18.376c-29.814,0-53.97,8.228-53.97,18.376V697.482z"/>
	</g>
</g>
<g>
	<path fill="#0095C7" d="M3896,556h-175.368c-4.983,0-8.632-3.419-8.632-8.402V119.909c0-4.983,3.649-9.909,8.632-9.909H3798v-3
		h-77.368c-6.976,0-12.632,5.933-12.632,12.909v427.688c0,6.977,5.656,12.402,12.632,12.402H3896V556z"/>
	<path fill="#0095C7" d="M5135.432,107H4273v3h862.432c4.983,0,8.568,4.926,8.568,9.909v427.688c0,4.983-3.584,8.402-8.568,8.402
		H3917v4h1218.432c6.977,0,12.568-5.426,12.568-12.402V119.909C5148,112.933,5142.409,107,5135.432,107z"/>
</g>
<g>
	<g>
		<text transform="matrix(1 0 0 1 5317.334 420.2136)" fill="#E7AF88" font-family="'TextbookNew-Regular'" font-size="55.298">index.php</text>
	</g>
	<g>
		<text transform="matrix(1 0 0 1 5805.2822 420.2137)"><tspan x="0" y="0" fill="#E7AF88" font-family="'TextbookNew-Regular'" font-size="55.298">index</tspan><tspan x="125.635" y="0" fill="#E7792C" font-family="'TextbookNew-Regular'" font-size="54.5688">.tpl</tspan><tspan x="199.573" y="0" fill="#E7AF88" font-family="'TextbookNew-Regular'" font-size="55.298">.php</tspan></text>
	</g>
	<g>
		<text transform="matrix(1 0 0 1 6421.6016 420.2131)" fill="#E7792C" font-family="'TextbookNew-Regular'" font-size="55.298">HTML</text>
	</g>
	<text transform="matrix(1 0 0 1 6396.1562 315.1587)"><tspan x="0" y="0" fill="#005C9C" font-family="'TextbookNew-Bold'" font-size="91.0865">&lt;</tspan><tspan x="64.307" y="0" fill="#005C9C" font-family="'TextbookNew-Bold'" font-size="91.0865" letter-spacing="-10"> </tspan><tspan x="74.598" y="-12.733" fill="#005C9C" font-family="'TextbookNew-Bold'" font-size="91.0865" letter-spacing="-10">/</tspan><tspan x="124.33" y="0" fill="#005C9C" font-family="'TextbookNew-Bold'" font-size="91.0865">&gt;</tspan></text>
	<path fill="#0095C7" d="M5814.792,301.001c-0.526,0-1.046-0.226-1.407-0.663c-0.638-0.776-0.526-1.794,0.249-2.432L5830.681,284
		h-273.943c-1.005,0-1.819-0.995-1.819-2s0.813-2,1.819-2h273.176l-16.28-13.349c-0.774-0.639-0.886-1.758-0.249-2.534
		c0.64-0.775,1.783-0.873,2.562-0.235l19.954,16.433c0.209,0.113,0.394,0.269,0.543,0.451l0.082,0.068
		c0.419,0.346,0.663,0.861,0.663,1.405c0,0.544-0.243,1.059-0.663,1.405l-20.579,16.942
		C5815.607,300.865,5815.198,301.001,5814.792,301.001z"/>
	<path fill="#0095C7" d="M5449.465,644.182c-0.543,0-1.059-0.243-1.405-0.663l-16.943-20.579c-0.638-0.775-0.526-1.922,0.249-2.561
		c0.778-0.64,1.622-0.527,2.262,0.248L5447,637.236V472.3l-13.373,16.608c-0.64,0.775-1.633,0.887-2.412,0.248
		c-0.774-0.639-0.811-1.785-0.173-2.561l16.98-20.579c0.693-0.838,2.136-0.838,2.829,0l16.95,20.579
		c0.638,0.776,0.531,1.922-0.244,2.561c-0.776,0.639-2.039,0.528-2.678-0.248L5451,472.189v165.159l13.882-16.72
		c0.64-0.774,1.845-0.887,2.621-0.248c0.774,0.639,0.916,1.784,0.278,2.561l-16.926,20.579
		C5450.509,643.939,5450.008,644.182,5449.465,644.182z"/>
	<path fill="#0095C7" d="M6327.738,301.001c-0.526,0-1.046-0.226-1.407-0.663c-0.638-0.776-0.525-1.794,0.249-2.432L6343.627,284
		h-273.943c-1.005,0-1.819-0.995-1.819-2s0.814-2,1.819-2h273.176l-16.28-13.349c-0.774-0.639-0.887-1.758-0.249-2.534
		c0.64-0.775,1.786-0.873,2.562-0.235l19.954,16.433c0.209,0.113,0.395,0.269,0.543,0.451l0.082,0.068
		c0.419,0.346,0.663,0.861,0.663,1.405c0,0.544-0.244,1.059-0.663,1.405l-20.579,16.942
		C6328.554,300.865,6328.145,301.001,6327.738,301.001z"/>
	<path fill="#005C9C" d="M5953.79,235.955l-1.778-1.778h-48.383V335.27h72.318v-77.158l-1.778-1.778L5953.79,235.955z
		 M5969.873,329.196h-60.17v-88.945h34.361c9.025,0,4.674,21.394,4.674,21.394s20.867-5.075,21.135,4.493V329.196z M6007.972,248.93
		l-19.718-19.718h-30.711l6.074,6.074h17.342c0.016,0,0.031,0,0.047,0c-0.007,0.071-0.007,0.134-0.007,0.205
		c2.707,0,4.052,2.195,4.634,5.083c1.062,5.571-0.559,13.541-0.559,13.541s0.031-0.008,0.086-0.016
		c-0.031,0.142-0.047,0.22-0.047,0.22s16.287-3.958,18.388,2.604c0.016,0.071,0.04,0.149,0.055,0.22
		c0.016,0.071,0.032,0.149,0.047,0.22c0.039,0.228,0.062,0.456,0.071,0.708v55.504h-21.347v6.074h27.421v-68.943L6007.972,248.93z"
		/>
	<path fill="#005C9C" d="M5427.765,235.955l-1.778-1.778h-48.383V335.27h72.319v-77.158l-1.778-1.778L5427.765,235.955z
		 M5443.849,329.196h-60.17v-88.945h34.362c9.025,0,4.674,21.394,4.674,21.394s20.867-5.075,21.135,4.493V329.196z M5481.947,248.93
		l-19.718-19.718h-30.71l6.074,6.074h17.342c0.016,0,0.031,0,0.047,0c-0.008,0.071-0.008,0.134-0.008,0.205
		c2.707,0,4.053,2.195,4.635,5.083c1.062,5.571-0.559,13.541-0.559,13.541s0.031-0.008,0.086-0.016
		c-0.031,0.142-0.047,0.22-0.047,0.22s16.288-3.958,18.389,2.604c0.016,0.071,0.039,0.149,0.055,0.22
		c0.016,0.071,0.031,0.149,0.047,0.22c0.04,0.228,0.063,0.456,0.071,0.708v55.504h-21.347v6.074h27.421v-68.943L5481.947,248.93z"/>
	<g>
		<g>
			<path fill="#005C9C" d="M5448.833,765.081c-15.382,0-29.964-2.08-41.05-5.856c-5.866-1.994-10.19-4.267-13.35-6.655v21.951
				c0,5.76,7.7,10.894,19.793,14.303c9.4,2.639,21.464,4.228,34.607,4.228c30.042,0,54.395-8.303,54.395-18.531V752.57
				c-3.164,2.389-7.483,4.662-13.354,6.655C5478.797,763.001,5464.215,765.081,5448.833,765.081z M5503.228,739.731v-22.557
				c-3.164,2.379-7.483,4.652-13.354,6.655c-11.077,3.775-25.659,5.856-41.041,5.856s-29.964-2.081-41.05-5.856
				c-5.866-2.003-10.2-4.277-13.35-6.655v22.557c1.811,9.68,25.534,17.347,54.4,17.347S5501.422,749.411,5503.228,739.731z
				 M5394.433,704.026c1.33,9.824,25.211,17.645,54.4,17.645c29.184,0,53.07-7.821,54.395-17.645v-19.215
				c0-10.229-24.353-18.522-54.395-18.522c-30.051,0-54.4,8.293-54.4,18.522V704.026z"/>
		</g>
	</g>
	<g>
		<path fill="#0095C7" d="M5438,562h-176.153c-5.023,0-8.847-4.028-8.847-9.051V121.855c0-5.023,3.824-8.855,8.847-8.855H5340v-4
			h-78.153c-7.032,0-12.847,5.823-12.847,12.855v431.093c0,7.032,5.815,13.051,12.847,13.051H5438V562z"/>
		<path fill="#0095C7" d="M6662.446,109H5811v4h851.446c5.023,0,8.554,3.832,8.554,8.855v431.093c0,5.023-3.531,9.051-8.554,9.051
			H5460v4h1202.446c7.032,0,12.554-6.019,12.554-13.051V121.855C6675,114.823,6669.478,109,6662.446,109z"/>
	</g>
	<g>
		<text transform="matrix(1 0 0 1 5364.6182 127.5549)" fill="#E7792C" font-family="'TextbookNew-Regular'" font-size="77.049">HTTP Server</text>
	</g>
</g>
</svg>
